<?xml version="1.0" encoding="utf-8"?>
<!-- Generator: Adobe Illustrator 19.0.0, SVG Export Plug-In . SVG Version: 6.00 Build 0)  -->
<svg version="1.1" id="Layer_1" xmlns="http://www.w3.org/2000/svg" xmlns:xlink="http://www.w3.org/1999/xlink" x="0px" y="0px"
	 viewBox="2415 -1134.4 5442.5 3061.4" style="enable-background:new 2415 -1134.4 5442.5 3061.4;" xml:space="preserve">
<style type="text/css">
	.st0{fill:none;stroke:#FFFFFF;stroke-width:80;stroke-miterlimit:10;}
	.st1{fill:#3B3A3A;}
	.st2{fill:#FFFFFF;}
	.st3{fill:#64C83C;}
</style>
<g>
	<path class="st0" d="M4400,396.6"/>
</g>
<path class="st1" d="M4208-628.5c592.5-589.5,1550.7-587.1,2140.2,5.5c589.5,592.5,587.1,1550.7-5.4,2140.2
	c-592.5,589.5-1550.7,587.1-2140.2-5.4C3613.1,919.2,3615.5-39,4208-628.5z"/>
<ellipse class="st2" cx="4020.5" cy="1665" rx="394.5" ry="394.5"/>
<ellipse class="st3" cx="4080.5" cy="1599.1" rx="238.6" ry="238.6"/>
<g>
	<g>
		<g>
			<path class="st2" d="M6121.4,755.6l-298.6-153.4c-99.5-51.7-102.9-17.8-207.5,88.8c-25.3,25.8-72.5,93.7-128.2,80.7
				c-116.4-27.4-334-190.5-404.8-264.8c-33.7-35.5-178.8-205.1-180.5-260c-3.4-84,188.9-126,126.5-285.8l-133.3-285.8
				c-124.8-274.5-474,164.7-445.3,369.8c74.2,505.4,1000.3,1322.5,1516.5,1052.9C6080.9,1036.5,6236.1,821.8,6121.4,755.6z"/>
		</g>
	</g>
</g>
</svg>
