<?xml version="1.0" encoding="utf-8"?>
<!-- Generator: Adobe Illustrator 19.0.0, SVG Export Plug-In . SVG Version: 6.00 Build 0)  -->
<svg version="1.1" id="Layer_1" xmlns="http://www.w3.org/2000/svg" xmlns:xlink="http://www.w3.org/1999/xlink" x="0px" y="0px"
	 viewBox="2415 -1134.4 5442.5 3061.4" style="enable-background:new 2415 -1134.4 5442.5 3061.4;" xml:space="preserve">
<style type="text/css">
	.st0{fill:none;stroke:#FFFFFF;stroke-width:80;stroke-miterlimit:10;}
	.st1{fill:#3B3A3A;}
	.st2{fill:#FFFFFF;}
	.st3{fill:#64C83C;}
</style>
<g>
	<path class="st0" d="M4400,396.6"/>
</g>
<path class="st1" d="M4244-676.2c592.5-589.5,1550.7-587.1,2140.2,5.5c589.5,592.5,587.1,1550.7-5.4,2140.2
	c-592.5,589.5-1550.7,587.1-2140.2-5.4C3649.1,871.5,3651.5-86.7,4244-676.2z"/>
<ellipse class="st2" cx="4020.5" cy="1665" rx="394.5" ry="394.5"/>
<ellipse class="st3" cx="4080.5" cy="1599.1" rx="238.6" ry="238.6"/>
<g>
	<g>
		<path class="st2" d="M5276.8-475.8c-475.2,0-861.8,389-861.8,867.1c0,479.9,385.8,877.6,861.8,877.6
			c192.6,0,387.4-65.1,534.5-178.7c34.3-26.5,40.8-76,14.5-110.5c-26.3-34.5-75.5-41.1-109.9-14.6
			c-120.3,92.9-280.3,147.2-439.1,147.2c-388.8,0-705.1-324-705.1-721c0-391.2,316.3-710.5,705.1-710.5
			c394.6,0,715.6,319.3,715.6,710.5v78.8c0,86.9-70.3,157.7-156.7,157.7c-86.4,0-156.7-70.7-156.7-157.7c0-39,0-353,0-394.2
			c0-43.5-35.1-78.8-78.3-78.8c-43.3,0-78.3,35.3-78.3,78.8v5C5451.6,26.7,5366-2.8,5276.8-2.8c-216,0-391.7,176.8-391.7,394.2
			c0,217.3,175.7,394.2,391.7,394.2c117.1,0,224.9-50.6,301.5-135.7c56.7,81.9,150.8,135.7,257.3,135.7
			c172.8,0,313.4-141.5,313.4-315.3v-78.8C6149.1-88.2,5753.2-475.8,5276.8-475.8z M5276.8,628.9c-129.6,0-235-107.1-235-237.5
			c0-130.4,105.4-237.5,235-237.5c133.1,0,245.5,109.3,245.5,237.5C5522.3,519.5,5409.9,628.9,5276.8,628.9z"/>
	</g>
</g>
</svg>
