<?xml version="1.0" encoding="utf-8"?>
<!-- Generator: Adobe Illustrator 19.0.0, SVG Export Plug-In . SVG Version: 6.00 Build 0)  -->
<svg version="1.1" id="Layer_1" xmlns="http://www.w3.org/2000/svg" xmlns:xlink="http://www.w3.org/1999/xlink" x="0px" y="0px"
	 viewBox="2415 -1134.4 5442.5 3061.4" style="enable-background:new 2415 -1134.4 5442.5 3061.4;" xml:space="preserve">
<style type="text/css">
	.st0{fill:#3B3A3A;}
	.st1{fill:#FFFFFF;}
	.st2{fill:#64C83C;}
	.st3{fill:none;stroke:#FFFFFF;stroke-width:80;stroke-miterlimit:10;}
	.st4{fill:none;stroke:#FFFFFF;stroke-width:60;stroke-miterlimit:10;}
</style>
<path class="st0" d="M4141-676.5c592.5-589.5,1550.7-587.1,2140.2,5.5c589.5,592.5,587.1,1550.7-5.4,2140.2
	c-592.5,589.5-1550.7,587.1-2140.2-5.4C3546.1,871.2,3548.5-87,4141-676.5z"/>
<ellipse class="st1" cx="3953.5" cy="1617" rx="394.5" ry="394.5"/>
<ellipse class="st2" cx="4013.5" cy="1551.1" rx="238.6" ry="238.6"/>
<g>
	<path class="st3" d="M5200.3-594.3h-0.5c-518.7,0-940.5,427.3-940.5,952.8c0,208.4,66.3,401.6,179.1,558.4l-117.2,354l361.6-117.1
		c148.8,99.8,326.2,157.4,517.5,157.4c518.7,0,940.5-427.4,940.5-952.8C6140.9-166.9,5719-594.3,5200.3-594.3z"/>
	<g id="XMLID_1_">
		<g>
			<path class="st1" d="M5763.9,618.9c6.6,11.8,6.6,67.2-16.1,132.2C5725,816,5635,869.9,5563.1,885.6
				c-49.2,10.6-113.4,19.1-329.5-71.7c-276.5-116-454.5-400.5-468.4-419c-13.3-18.5-111.7-150.7-111.7-287.4
				c0-136.7,68.6-203.3,96.2-231.9c22.7-23.5,60.2-34.2,96.2-34.2c11.6,0,22.1,0.6,31.5,1.1c27.6,1.2,41.5,2.9,59.7,47
				c22.7,55.4,78,192.1,84.5,206.2c6.7,14.1,13.4,33.1,4,51.6c-8.8,19.1-16.6,27.5-30.5,43.7c-13.9,16.2-27,28.6-40.9,46
				c-12.7,15.1-27,31.3-11,59.3c16,27.4,71.3,118.7,152.6,192.1c105,94.7,190.1,124.9,220.6,137.8c22.7,9.5,49.7,7.3,66.3-10.6
				c21-23,47-61.1,73.5-98.6c18.8-26.9,42.6-30.2,67.5-20.7c25.4,8.9,159.8,76.2,187.4,90.2C5738.9,600.5,5757.1,607.2,5763.9,618.9
				z"/>
		</g>
		<g>
			<path class="st4" d="M5747.7,751.1C5725,816,5635,869.9,5563.1,885.6c-49.2,10.6-113.4,19.1-329.5-71.7
				c-276.5-116-454.5-400.5-468.4-419c-13.3-18.5-111.7-150.7-111.7-287.4c0-136.7,68.6-203.3,96.2-231.9
				c22.7-23.5,60.2-34.2,96.2-34.2c11.6,0,22.1,0.6,31.5,1.1c27.6,1.2,41.5,2.9,59.7,47c22.7,55.4,78,192.1,84.5,206.2
				c6.7,14.1,13.4,33.1,4,51.6c-8.8,19.1-16.6,27.5-30.5,43.7c-13.9,16.2-27,28.6-40.9,46c-12.7,15.1-27,31.3-11,59.3
				c16,27.4,71.3,118.7,152.6,192.1c105,94.7,190.1,124.9,220.6,137.8c22.7,9.5,49.7,7.3,66.3-10.6c21-23,47-61.1,73.5-98.6
				c18.8-26.9,42.6-30.2,67.5-20.7c25.4,8.9,159.8,76.2,187.4,90.2c27.6,14.1,45.9,20.7,52.6,32.5
				C5770.4,630.7,5770.4,686.1,5747.7,751.1z"/>
		</g>
	</g>
</g>
</svg>
